<?xml version="1.0" encoding="UTF-8"?>
<svg xmlns="http://www.w3.org/2000/svg" viewBox="0 0 50 50">
    <path d="M25 2C12.309 2 2 12.309 2 25s10.309 23 23 23 23-10.309 23-23S37.691 2 25 2zm-9.313 7.313c1.399 0 2.918.382 4.72 1.28 1.8.9 3.105 1.805 3.905 2.907 1.301.3 2.387.8 3.188 1.5 1 .898 1.793 2.293 2.594 4.094.699 1.8 1.093 3.508 1.093 4.906 0 .398-.085.805-.187 1.406.3-.101 1-.293 2-.593 1-.301 1.887-.614 2.688-.813.8-.2 1.406-.313 1.906-.313s1 .118 1.5.22c.5.1.812.382.812.78 0 .602-1.414 1.399-4.312 2.5-2.899 1.102-4.696 1.625-5.594 1.625-.2 0-.594-.023-1.094-.125-.5-.101-.918-.093-1.218-.093h-1.094c-.102 0-.188.093-.188.093 0 .102-.093.211-.093.313 0 .7.476 1.29 1.375 1.688.898.398 1.824.625 2.625.625.8 0 1.882-.114 3.28-.313 1.4-.2 2.614-.313 3.313-.313.5 0 .782.227.782.625 0 .602-.883 1.188-2.782 1.688-1.8.5-3.195.813-4.093.813-1.7 0-3.825-.7-6.625-2-.102.398-.094.882-.094 1.28 0 1.602.418 3.4 1.218 5.5h.188c.398-.1.688.102.688.5 2.101-1.6 3.613-2.406 4.312-2.406.5 0 .813 1.426.813 4.126 0 1.5-.22 2.187-.72 2.187-.698 0-1.882-.387-3.78-1.188.3.602.8 1.399 1.5 2.5.343.493.64.891.875 1.25A21.148 21.148 0 0125 46c-2.59 0-5.055-.488-7.344-1.344-.273-1.277-.613-2.988-1.156-5.468-1.602-7-2.688-12.274-3.188-15.876-.101-.699-.218-1.417-.218-2.218 0-2.301.613-4.106 1.812-5.407 1.2-1.3 2.98-2.074 5.281-2.374-.699-.2-1.488-.313-2.687-.313-.8 0-2.086.113-3.688.313 0-.2.083-.399.282-.5l.594-.313c.199 0 .511-.094.812-.094.3 0 .492-.094.594-.094.601-.101 1.32-.414 2.218-.812-1.3-.398-2.5-.594-3.5-.594-.199 0-.5-.008-1 .094-.398.102-.699.094-1 .094H12.5l1-1.406c.102 0 .5-.086 1-.188.5-.102.988-.188 1.188-.188zm12.126 8.093c-.899 0-1.426.395-1.625 1.094.199-.398.824-.594 1.625-.594.398 0 .898.106 1.5.407-.2-.5-.801-.907-1.5-.907zm-10.5.5c-.372.043-.7.18-1 .407-.5.3-.72.687-.72 1.187 0 .2-.007.398.095.5 0-.5.21-.887.812-1.188.602-.398 1.094-.5 1.594-.5.199 0 .508.086.906.188-.3-.398-.71-.594-1.313-.594-.125 0-.25-.015-.375 0zm11.28 2.782c-.3 0-.605.105-.905.406-.301.3-.375.605-.375.906 0 .3.074.605.375.906.3.301.605.407.906.407.398 0 .707-.106.906-.407.3-.3.406-.605.406-.906 0-.398-.105-.707-.406-.906-.3-.301-.605-.407-.906-.407zm.5.625c.2 0 .407.082.407.28 0 .2-.105.407-.406.407-.2 0-.282-.105-.282-.406 0-.2.083-.282.282-.282zm-10.593.093c-.398 0-.7.2-1 .5-.3.301-.5.7-.5 1 0 .399.2.7.5 1 .3.301.602.5 1 .5s.7-.199 1-.5c.3-.3.5-.699.5-1 0-.398-.2-.699-.5-1-.3-.3-.7-.5-1-.5zm.688.594c.3 0 .406.105.406.406 0 .2-.106.407-.407.407-.3 0-.375-.106-.375-.407 0-.3.075-.406.375-.406z"/>
</svg>