<?xml version="1.0" encoding="UTF-8"?>
<svg xmlns="http://www.w3.org/2000/svg" viewBox="0 0 50 50" width="50px" height="50px">
    <path d="M 23.21875 0 C 23.21875 0 22 1.308594 22 3.3125 C 22 5.46875 23.5625 6.65625 23.5625 6.65625 C 23.5625 6.65625 24.71875 5.914063 24.71875 3.3125 C 24.71875 1.101563 23.21875 0 23.21875 0 Z M 36.09375 1.3125 C 36.09375 1.3125 34.128906 1.746094 32.84375 3.59375 C 31.457031 5.582031 32.125 7.65625 32.125 7.65625 C 32.125 7.65625 33.644531 7.707031 35.3125 5.3125 C 36.730469 3.277344 36.09375 1.3125 36.09375 1.3125 Z M 13.0625 3.09375 C 13.0625 3.09375 12.726563 4.515625 13.53125 5.9375 C 14.398438 7.46875 15.96875 7.65625 15.96875 7.65625 C 15.96875 7.65625 16.480469 6.6875 15.4375 4.84375 C 14.550781 3.277344 13.0625 3.09375 13.0625 3.09375 Z M 41.5625 8.71875 C 41.082031 8.707031 40.007813 8.777344 39 9.5 C 37.554688 10.535156 37.53125 12.15625 37.53125 12.15625 C 37.53125 12.15625 38.570313 12.625 40.3125 11.375 C 41.792969 10.3125 41.8125 8.75 41.8125 8.75 C 41.8125 8.75 41.722656 8.722656 41.5625 8.71875 Z M 25 9 C 16.175781 9 9 16.175781 9 25 C 9 33.824219 16.175781 41 25 41 C 33.824219 41 41 33.824219 41 25 C 41 16.175781 33.824219 9 25 9 Z M 6.4375 10.34375 C 6.277344 10.351563 6.1875 10.375 6.1875 10.375 C 6.1875 10.375 6.304688 11.828125 7.5 12.9375 C 8.789063 14.132813 10.34375 13.84375 10.34375 13.84375 C 10.34375 13.84375 10.554688 12.753906 9 11.3125 C 8.007813 10.394531 6.917969 10.320313 6.4375 10.34375 Z M 25 11 C 32.742188 11 39 17.257813 39 25 C 39 32.742188 32.742188 39 25 39 C 17.257813 39 11 32.742188 11 25 C 11 17.257813 17.257813 11 25 11 Z M 25 13 C 18.382813 13 13 18.382813 13 25 C 13 31.617188 18.382813 37 25 37 C 31.617188 37 37 31.617188 37 25 C 37 18.382813 31.617188 13 25 13 Z M 25 15 C 27.621094 15 30 16.011719 31.78125 17.65625 C 30.808594 17.773438 29.515625 18 29 18 C 28.285156 18 26.984375 17.3125 26.46875 17.3125 C 25.953125 17.3125 24.777344 17.945313 24.6875 18.28125 C 24.597656 18.617188 24.492188 19.125 24.3125 19.125 C 24.132813 19.125 23.636719 18.65625 23.4375 18.65625 C 23.238281 18.65625 22.9375 18.859375 22.9375 19.0625 C 22.9375 19.261719 23.28125 19.695313 23.28125 19.875 C 23.28125 20.054688 22.375 20.429688 22.375 20.8125 C 22.375 22.222656 20.8125 22.210938 20.8125 23.6875 C 20.8125 25.230469 21.503906 25.65625 22.21875 25.65625 C 23.605469 25.65625 23.90625 26.910156 23.90625 27.625 C 23.90625 28.339844 23.6875 28.554688 23.6875 29.25 C 23.6875 30.4375 24.230469 31.625 24.8125 31.625 C 25.863281 31.625 26.28125 30.398438 26.59375 30.0625 C 26.90625 29.726563 27.53125 29.15625 27.53125 28.6875 C 27.53125 27.121094 29.03125 26.925781 29.03125 26.1875 C 29.03125 25.316406 29.699219 25.328125 30 25.0625 C 30.359375 24.75 30.726563 24.21875 31.0625 24.21875 C 31.976563 24.21875 31.960938 26.71875 32.65625 26.71875 C 33.082031 26.71875 32.992188 25.21875 34 25.21875 C 34.457031 25.21875 34.75 25.605469 34.9375 26 C 34.441406 31.066406 30.199219 35 25 35 C 21.097656 35 17.742188 32.78125 16.09375 29.53125 C 16.253906 29.308594 16.398438 29.039063 16.46875 28.96875 C 16.652344 28.785156 16.941406 28.679688 17.15625 28.53125 C 17.371094 28.382813 17.417969 28.164063 17.5 27.75 C 17.582031 27.335938 18.035156 26.910156 17.96875 26.5625 C 17.902344 26.214844 16.957031 25.808594 16.59375 25.59375 C 16.230469 25.378906 15.917969 24.457031 15.4375 24.125 C 15.3125 24.039063 15.191406 23.984375 15.0625 23.90625 C 15.269531 21.964844 16.035156 20.195313 17.1875 18.75 C 17.28125 18.789063 17.339844 18.875 17.46875 18.875 C 17.601563 18.875 17.875 18.734375 17.875 18.4375 C 17.875 18.355469 17.832031 18.222656 17.78125 18.09375 C 18.21875 17.636719 18.703125 17.242188 19.21875 16.875 C 19.21875 17.1875 19.355469 17.46875 19.71875 17.46875 C 20.21875 17.46875 20.632813 16.972656 21.28125 16.9375 C 21.867188 16.90625 23.03125 16.453125 23.03125 15.8125 C 23.03125 15.5625 22.683594 15.375 22.40625 15.375 C 22.378906 15.375 22.289063 15.375 22.25 15.375 C 23.125 15.125 24.042969 15 25 15 Z M 24.3125 20.84375 C 24.566406 20.84375 25.410156 21.457031 25.75 21.5625 C 26.089844 21.667969 26.378906 22.0625 26.71875 22.0625 C 27.058594 22.0625 27.21875 22.246094 27.21875 22.34375 C 27.21875 22.445313 27.109375 22.5625 26.8125 22.5625 C 26.515625 22.5625 26.398438 22.421875 26.1875 22.40625 C 25.976563 22.390625 25.824219 22.496094 25.34375 22.28125 C 24.804688 22.042969 24.03125 21 24.03125 21 C 24.03125 20.84375 24.058594 20.84375 24.3125 20.84375 Z M 28.125 29.40625 C 27.851563 29.433594 27.609375 29.851563 27.5625 30.1875 C 27.546875 30.285156 27.554688 30.378906 27.59375 30.46875 C 27.632813 30.558594 27.714844 30.652344 27.8125 30.65625 C 27.933594 30.664063 28.050781 30.566406 28.125 30.46875 C 28.300781 30.238281 28.390625 29.945313 28.40625 29.65625 C 28.410156 29.582031 28.421875 29.496094 28.375 29.4375 C 28.316406 29.367188 28.214844 29.398438 28.125 29.40625 Z M 37.875 36.21875 C 37.707031 36.226563 37.59375 36.25 37.59375 36.25 C 37.59375 36.25 37.425781 37.363281 39 38.78125 C 40.335938 39.988281 41.8125 39.6875 41.8125 39.6875 C 41.8125 39.6875 41.679688 38.21875 40.46875 37.125 C 39.488281 36.242188 38.375 36.191406 37.875 36.21875 Z M 12.15625 37.3125 C 11.714844 37.296875 10.707031 37.339844 9.59375 38.125 C 8.105469 39.175781 8.09375 40.75 8.09375 40.75 C 8.09375 40.75 9.601563 40.984375 10.90625 39.96875 C 12.292969 38.890625 12.375 37.3125 12.375 37.3125 C 12.375 37.3125 12.304688 37.316406 12.15625 37.3125 Z M 18 40.9375 C 17.488281 41.023438 16.292969 41.421875 15 43.1875 C 13.535156 45.191406 14.21875 47.3125 14.21875 47.3125 C 14.21875 47.3125 16.097656 46.84375 17.4375 44.96875 C 18.84375 42.996094 18.25 40.9375 18.25 40.9375 C 18.25 40.9375 18.171875 40.910156 18 40.9375 Z M 34.34375 42.71875 C 34.34375 42.71875 33.800781 43.6875 34.84375 45.53125 C 35.730469 47.097656 37.25 47.28125 37.25 47.28125 C 37.25 47.28125 37.585938 45.859375 36.78125 44.4375 C 35.914063 42.90625 34.34375 42.71875 34.34375 42.71875 Z M 25.15625 42.78125 C 25.15625 42.78125 23.808594 43.75 23.59375 46.34375 C 23.410156 48.546875 24.875 50 24.875 50 C 24.875 50 26.335938 48.71875 26.46875 46.5 C 26.632813 43.765625 25.15625 42.78125 25.15625 42.78125 Z" />
</svg>